<svg height='100px' width='100px'  fill="#FFFFFF" xmlns="http://www.w3.org/2000/svg" xmlns:xlink="http://www.w3.org/1999/xlink" version="1.1" x="0px" y="0px" viewBox="0 0 100 100" style="enable-background:new 0 0 100 100;" xml:space="preserve"><path d="M71,54c-0.3-0.7-0.2-1.5,0.2-2.4l0,0c0.1-0.3,0.4-0.8,0.8-1.6l0.5-1l-2-2l-2.9,1.5l0,0c-0.5,0.2-1.3,0.4-2.1,0.1  c-0.8-0.3-1.3-1-1.6-2l0,0c-0.1-0.2-0.1-0.3-0.2-0.5l-0.7-2.3h-2.9l-0.9,2.9c-0.1,0.3-0.4,1.5-1.5,2c-0.5,0.2-1.4,0.4-2.5-0.3L53,47  l-2,2l1.3,2.3c0.1,0.1,0.8,1.3,0.4,2.6c-0.2,0.5-0.7,1.2-1.9,1.6l0,0c-0.3,0.1-0.8,0.3-1.6,0.5l-1,0.3l0,2.6l2.6,0.8  c0.4,0.1,1.5,0.5,2,1.6c0.3,0.7,0.2,1.5-0.2,2.4l0,0c-0.1,0.3-0.4,0.8-0.8,1.6l-0.5,1l2,2l2.9-1.5l0,0c0.5-0.2,1.3-0.4,2.1-0.1  c0.8,0.3,1.3,1,1.6,2l0,0c0.1,0.2,0.1,0.3,0.2,0.5l0.7,2.3h2.9l0.9-2.9c0.1-0.3,0.4-1.5,1.5-2c0.5-0.2,1.4-0.4,2.5,0.3l2.5,1.3l2-2  l-1.3-2.3c-0.1-0.1-0.8-1.3-0.4-2.6c0.2-0.5,0.7-1.2,1.9-1.6l0,0c0.3-0.1,0.8-0.3,1.6-0.5l1-0.3l0-2.6L73,55.6  C72.6,55.5,71.5,55.1,71,54z M61.9,64.2c-3.3,0-6.1-2.5-6.5-5.7h-0.1l0-0.9c0-3.6,3-6.6,6.6-6.6c3.3,0,6.1,2.5,6.5,5.7h0.1l0,0.9  C68.4,61.3,65.5,64.2,61.9,64.2z"></path><path d="M61.9,52.8c-2.6,0-4.8,2.1-4.9,4.7l0,0.2c0,2.7,2.2,4.9,4.9,4.9c2.6,0,4.8-2.1,4.9-4.7l0-0.2C66.7,55,64.6,52.8,61.9,52.8z"></path><path d="M87.7,23.8l-34.6-20c-2.2-1.3-5-1.3-7.2,0l-34.6,20c-2.2,1.3-3.6,3.7-3.6,6.2v40c0,2.6,1.4,5,3.6,6.2l34.6,20  c1.1,0.6,2.3,1,3.6,1s2.5-0.3,3.6-1l34.6-20c2.2-1.3,3.6-3.7,3.6-6.2v-40C91.3,27.5,90,25.1,87.7,23.8z M45.2,53.4l-3.1-1.6  C40,50.5,39.4,53,39.4,53l-1.1,3.5h-4.2c0,0-1-3.5-1-3.5c-0.7-2.3-2.5-1.4-2.9-1.2c0,0,0,0,0,0l-3,1.6l-2.9-2.9c0,0,1.7-3,1.7-3  c1-2-0.8-2.7-1.3-2.8l-3.3-1l0-3.8c0,0,3.3-0.9,3.3-0.9c2.4-0.8,1-2.9,1-2.9c0,0,0,0,0,0L24.2,33l2.9-2.9l3.1,1.6  c2.2,1.3,2.7-1.2,2.7-1.2L34,27h4.2l1,3.5c0.7,2.3,2.5,1.4,2.9,1.2c0,0,0,0,0,0l3-1.6L48,33c0,0-1.7,3-1.7,3c-1,2,0.8,2.7,1.3,2.8  l3.3,1l0,3.8c0,0-3.3,0.9-3.3,0.9c-2.4,0.8-1,2.9-1,2.9c0,0,0,0,0,0l1.6,2.9L45.2,53.4z M77.4,60.3l-0.6,0.2  c-1.2,0.4-3.1,0.9-3.2,0.9l0,0c-0.3,0.1-0.7,0.3-0.8,0.6c-0.1,0.3,0,0.6,0.1,0.9l2.1,3.7l-3.8,3.8l-3.6-1.9c-0.3-0.2-0.7-0.3-1-0.2  c-0.3,0.1-0.5,0.6-0.5,0.8l0,0.1l-1.3,4.1h-5.4L59,72.7c0,0-0.5-1.9-0.8-2.9h0L58,69.2c-0.1-0.3-0.3-0.8-0.6-0.9  c-0.3-0.1-0.8,0.1-1,0.2L56,68.7l0,0l-3.2,1.7L49,66.5l0.3-0.6c0.6-1.1,1.6-2.8,1.7-3l0,0c0.1-0.3,0.3-0.7,0.2-1  c-0.1-0.3-0.6-0.5-0.9-0.6l-3.9-1.2l0-5.1l0.6-0.2c1.2-0.3,3.1-0.9,3.2-0.9l0,0c0.3-0.1,0.7-0.3,0.8-0.6c0.1-0.3,0-0.6-0.1-0.9  l-2.1-3.7l3.8-3.8l3.6,1.9c0.3,0.2,0.7,0.3,1,0.2c0.3-0.1,0.5-0.6,0.5-0.8l0-0.1l1.3-4.1h5.4l0.2,0.6c0,0,0.5,1.9,0.8,2.9h0l0.2,0.6  c0.1,0.3,0.3,0.8,0.6,0.9c0.3,0.1,0.8-0.1,1-0.2l0.4-0.2l0,0l3.2-1.7l3.8,3.8l-0.3,0.6c-0.6,1.1-1.6,2.8-1.7,3l0,0  c-0.1,0.3-0.3,0.7-0.2,1c0.1,0.3,0.6,0.5,0.9,0.6l3.9,1.2L77.4,60.3z"></path><path d="M36.2,36c-3.2,0-5.7,2.6-5.7,5.7h0c0,3.2,2.6,5.7,5.7,5.7s5.7-2.6,5.7-5.7h0C41.9,38.6,39.4,36,36.2,36z"></path></svg>